<?xml version="1.0" encoding="UTF-8" standalone="no"?>
<!-- Generator: Adobe Illustrator 26.3.1, SVG Export Plug-In . SVG Version: 6.00 Build 0)  -->

<svg
   version="1.1"
   id="Layer_1"
   x="0px"
   y="0px"
   width="185px"
   height="60px"
   viewBox="0 0 185 60"
   enable-background="new 0 0 185 60"
   xml:space="preserve"
   sodipodi:docname="recomb-dark.svg"
   inkscape:version="1.2.2 (b0a8486541, 2022-12-01)"
   xmlns:inkscape="http://www.inkscape.org/namespaces/inkscape"
   xmlns:sodipodi="http://sodipodi.sourceforge.net/DTD/sodipodi-0.dtd"
   xmlns="http://www.w3.org/2000/svg"
   xmlns:svg="http://www.w3.org/2000/svg"><defs
   id="defs19" /><sodipodi:namedview
   id="namedview17"
   pagecolor="#ffffff"
   bordercolor="#000000"
   borderopacity="0.25"
   inkscape:showpageshadow="2"
   inkscape:pageopacity="0.0"
   inkscape:pagecheckerboard="0"
   inkscape:deskcolor="#d1d1d1"
   showgrid="false"
   inkscape:zoom="7.0810811"
   inkscape:cx="91.51145"
   inkscape:cy="29.938931"
   inkscape:window-width="1920"
   inkscape:window-height="1019"
   inkscape:window-x="0"
   inkscape:window-y="0"
   inkscape:window-maximized="1"
   inkscape:current-layer="g38" />
<g
   id="g38">
	<g
   id="g4"
   transform="translate(2)">
		<path
   d="m -0.8,54.7 c -0.1,1 0.7,1.9 1.7,1.9 H 4.3 C 5.2,56.6 5.9,56 6,55.1 6.1,54.6 6.2,53.9 6.4,53.2 h 33 c 0.2,0.7 0.3,1.4 0.4,1.9 0.1,0.8 0.8,1.5 1.7,1.5 h 3.4 c 1,0 1.8,-0.9 1.7,-1.9 -0.5,-4 -2.7,-13.5 -12.6,-21.9 -1.8,1.3 -3.9,2.6 -6.2,3.8 0.7,0.5 1.2,1 1.8,1.5 H 16.1 c 2.2,-1.9 5,-3.8 8.3,-5.4 C 42.6,23.7 45.9,9.6 46.5,4.5 46.6,3.5 45.8,2.6 44.8,2.6 H 41.4 C 40.5,2.6 39.8,3.2 39.7,4.1 39.6,4.6 39.5,5.3 39.3,6 H 6.3 C 6.2,5.2 6.1,4.5 6,4 5.9,3.1 5.2,2.5 4.3,2.5 H 0.9 c -1,0 -1.8,0.9 -1.7,1.9 0.5,4.5 3.3,16.3 16.9,25.2 C 2.5,38.5 -0.2,50.2 -0.8,54.7 Z m 23.7,-29 c -2.7,-1.5 -4.9,-3 -6.8,-4.6 h 13.6 c -1.9,1.6 -4.2,3.2 -6.8,4.6 z m 13.8,-13 c -0.6,1.1 -1.4,2.2 -2.2,3.3 H 11.2 C 10.3,14.9 9.6,13.7 9,12.6 Z M 9,46.4 c 0.6,-1.1 1.3,-2.2 2.2,-3.4 h 23.2 c 0.9,1.1 1.6,2.3 2.2,3.4 z"
   id="path2" />
	</g>
	<g
   id="g26"
   transform="translate(0,10.8)">
		<path
   d="m 54.8,25 c 0.1,-1.1 0.2,-2.1 0.3,-2.9 0.1,-0.9 0.1,-1.9 0.2,-3 0,-1.2 0.1,-2.4 0.1,-3.6 0,-1.3 0,-2.3 0,-3 0.8,0 1.4,0 1.9,0 0.5,0 1.1,0 1.8,0 0.7,0 1.4,0 2.1,0 0.8,0 1.5,0 2.1,0.1 0.5,0 0.9,0.1 1.3,0.3 0.4,0.1 0.7,0.3 1,0.5 0.3,0.2 0.5,0.4 0.6,0.7 0.1,0.3 0.3,0.5 0.4,0.8 0.1,0.3 0.1,0.7 0.1,1 0,0.4 -0.1,0.8 -0.2,1.2 -0.1,0.4 -0.3,0.7 -0.5,1 -0.2,0.3 -0.5,0.6 -0.9,0.8 -0.3,0.2 -0.8,0.5 -1.4,0.7 l 0.5,1.2 c 0.1,0.3 0.3,0.7 0.4,1 l 1.2,2.7 c 0.1,0.1 0.2,0.3 0.3,0.7 -1,0 -1.7,0 -2.1,0 -0.4,0 -1.2,0 -2.2,0 C 61.7,24.9 61.5,24.3 61.3,23.4 61.2,23 61.1,22.8 61,22.6 60.9,22.2 60.6,21.5 60.3,20.8 l -1,-2.6 c 0.3,0.1 0.7,0.1 1,0.1 0.5,0 0.9,-0.1 1.2,-0.2 0.4,-0.1 0.6,-0.3 0.8,-0.6 0.2,-0.3 0.3,-0.6 0.3,-0.9 0,-0.3 -0.1,-0.5 -0.2,-0.7 C 62.3,15.7 62,15.5 61.7,15.5 61.6,15 61.2,15 60.5,15 c -0.2,0 -0.4,0 -0.7,0 -0.2,0 -0.5,0 -0.8,0 -0.1,1.3 -0.1,2.8 -0.2,4.6 -0.1,1.8 -0.1,3.6 -0.1,5.4 -1,0 -1.7,0 -2,0 -0.4,0 -1,0 -1.9,0 z"
   id="path6"
   inkscape:connector-curvature="0" />
		<path
   d="m 68.1,25 c 0.2,-1.6 0.3,-2.9 0.3,-4 0,-1.1 0.1,-2.5 0.2,-4.3 0.1,-1.8 0.1,-3 0.1,-3.5 v -0.8 c 1.5,0 3.2,0 5.3,0 1.9,0 3.6,0 5.1,0 v 0.3 c 0,0.1 0,0.3 0,0.8 l -0.1,1 c 0,0.2 0,0.4 0,0.7 -1.2,0 -2.2,-0.1 -3,-0.1 -0.9,0 -1.5,0 -1.8,0 -0.3,0 -0.8,0 -1.5,0 l -0.1,2.1 c 0.7,0 1.6,0 2.6,0 0.3,0 1.3,0 2.8,-0.1 -0.1,0.8 -0.1,1.7 -0.2,2.8 -1.1,0 -1.9,0 -2.5,0 -0.9,0 -1.8,0 -2.9,0.1 l -0.1,2.3 h 1.1 c 0.3,0 1,0 2,0 h 1.9 c 0.3,0 0.8,0 1.4,-0.1 -0.1,0.9 -0.1,1.9 -0.2,2.8 -1.5,0 -3.2,0 -5,0 h -4.1 z"
   id="path8"
   inkscape:connector-curvature="0" />
		<path
   d="m 91.6,21.9 c -0.1,0.4 -0.2,0.9 -0.3,1.5 -0.1,0.7 -0.2,1.2 -0.2,1.5 -1.3,0.2 -2.5,0.3 -3.5,0.3 -1,0 -1.9,-0.1 -2.8,-0.4 -0.9,-0.2 -1.7,-0.7 -2.4,-1.2 -0.7,-0.6 -1.2,-1.2 -1.5,-2 -0.3,-0.8 -0.5,-1.6 -0.5,-2.6 0,-1.1 0.2,-2.1 0.6,-3 0.4,-0.9 1,-1.6 1.8,-2.2 0.8,-0.6 1.6,-1 2.6,-1.3 0.9,-0.3 1.9,-0.4 2.9,-0.4 0.9,0 2,0.1 3.4,0.4 v 0.8 c 0,0.3 0,0.7 0.1,1.1 l 0.1,1.1 C 91.2,15.3 90.6,15.2 90.1,15.1 89.6,15 89.2,15 88.8,15 c -0.8,0 -1.6,0.2 -2.3,0.5 -0.7,0.3 -1.2,0.8 -1.6,1.5 -0.4,0.6 -0.6,1.3 -0.6,2.1 0,0.7 0.2,1.3 0.5,1.8 0.3,0.5 0.8,0.9 1.3,1.2 0.5,0.3 1.2,0.4 2,0.4 0.4,0 0.9,0 1.4,-0.1 0.6,-0.1 1.3,-0.3 2.1,-0.5 z"
   id="path10"
   inkscape:connector-curvature="0" />
		<path
   d="m 101,12.1 c 1,0 1.9,0.1 2.9,0.4 0.9,0.3 1.7,0.7 2.4,1.3 0.7,0.6 1.2,1.3 1.5,2 0.3,0.8 0.5,1.6 0.5,2.6 0,1 -0.2,2 -0.6,2.9 -0.4,0.9 -0.9,1.6 -1.6,2.2 -0.7,0.6 -1.5,1 -2.5,1.3 -1,0.3 -2,0.4 -3.1,0.4 -1,0 -2,-0.1 -3,-0.4 -1,-0.3 -1.8,-0.7 -2.5,-1.3 -0.7,-0.6 -1.2,-1.3 -1.5,-2.1 -0.3,-0.8 -0.4,-1.6 -0.4,-2.5 0,-1.4 0.3,-2.5 0.9,-3.6 0.6,-1 1.6,-1.8 2.8,-2.4 1.3,-0.5 2.7,-0.8 4.2,-0.8 z m -0.2,2.8 c -0.7,0 -1.4,0.2 -1.9,0.5 -0.6,0.3 -1,0.8 -1.3,1.5 -0.3,0.6 -0.5,1.3 -0.5,2 0,0.7 0.1,1.3 0.4,1.8 0.3,0.5 0.7,1 1.3,1.3 0.6,0.3 1.2,0.5 1.8,0.5 0.7,0 1.3,-0.2 1.9,-0.5 0.6,-0.3 1,-0.8 1.3,-1.4 0.3,-0.6 0.5,-1.3 0.5,-2 0,-0.7 -0.1,-1.3 -0.4,-1.8 -0.3,-0.6 -0.7,-1 -1.2,-1.3 -0.6,-0.5 -1.2,-0.6 -1.9,-0.6 z"
   id="path12"
   inkscape:connector-curvature="0" />
		<path
   d="m 109.6,25 0.2,-1.9 0.6,-6.5 0.3,-4.3 c 1.1,0 2,0 2.7,0 0.5,0 1.4,0 2.5,0 0.1,0.5 0.1,0.9 0.2,1.2 0.1,0.3 0.2,0.8 0.4,1.6 0.2,0.8 0.4,1.5 0.5,2.1 0.1,0.6 0.3,1.6 0.6,3 0.3,-1 0.5,-1.8 0.7,-2.5 0.2,-0.7 0.5,-1.5 0.8,-2.4 0.3,-0.9 0.5,-1.5 0.6,-1.7 0.1,-0.3 0.2,-0.7 0.4,-1.3 0.9,0 1.8,0 2.7,0 0.6,0 1.4,0 2.5,0 -0.1,2.1 -0.2,3.9 -0.2,5.4 -0.1,2.9 -0.1,4.9 -0.1,6 0,0.2 0,0.6 0,1.2 -0.8,0 -1.4,0 -1.7,0 -0.5,0 -1.1,0 -1.8,0 0,-0.6 0.1,-1.9 0.2,-4 0.1,-2.1 0.1,-3.4 0.1,-4 0,-0.3 0,-0.6 0,-1.1 l -1.2,3.8 -1.7,5.3 c -0.8,0 -1.4,0 -1.7,0 -0.4,0 -1,0 -1.8,0 l -1.1,-5.1 -0.7,-2.7 c 0,-0.1 -0.1,-0.2 -0.1,-0.4 0,-0.2 -0.1,-0.4 -0.1,-0.8 l -0.2,2.6 -0.3,5.3 V 25 c -0.9,0 -1.4,0 -1.6,0 -0.4,0 -0.9,0 -1.7,0 z"
   id="path14"
   inkscape:connector-curvature="0" />
		<path
   d="m 127.3,25 c 0.1,-1.4 0.2,-2.4 0.3,-3.2 0.1,-1.1 0.1,-2.5 0.2,-4.4 0.1,-1.9 0.1,-3.2 0.1,-3.9 0,-0.3 0,-0.7 0,-1.2 0.8,0 1.5,0 2,0 0.7,0 1.5,0 2.4,0 0.9,0 1.7,0 2.3,0 0.8,0 1.3,0 1.7,0.1 0.4,0.1 0.8,0.2 1.1,0.3 0.3,0.1 0.6,0.3 0.8,0.5 0.2,0.2 0.4,0.5 0.6,0.9 0.2,0.4 0.2,0.8 0.2,1.3 0,0.4 0,0.7 -0.1,1 -0.1,0.3 -0.2,0.6 -0.4,0.9 -0.2,0.3 -0.3,0.5 -0.6,0.6 -0.2,0.2 -0.4,0.3 -0.6,0.4 -0.2,0.1 -0.5,0.2 -0.8,0.3 0.3,0.1 0.6,0.1 0.8,0.2 0.2,0.1 0.4,0.2 0.6,0.3 0.2,0.2 0.4,0.4 0.6,0.6 0.2,0.2 0.3,0.5 0.4,0.8 0.1,0.3 0.1,0.6 0.1,1 0,0.5 -0.1,0.9 -0.2,1.3 -0.2,0.4 -0.4,0.8 -0.6,1.1 -0.2,0.3 -0.5,0.5 -0.9,0.6 -0.4,0.2 -0.8,0.3 -1.2,0.4 -0.3,0 -0.9,0.1 -1.8,0.1 -0.9,0 -1.8,0 -2.7,0 h -2.4 z m 4,-2.5 h 1.8 c 0.5,0 0.8,0 1,-0.1 0.3,-0.1 0.5,-0.2 0.6,-0.3 0.1,-0.1 0.3,-0.3 0.3,-0.5 0.1,-0.2 0.1,-0.4 0.1,-0.6 0,-0.2 0,-0.4 -0.1,-0.5 -0.1,-0.2 -0.2,-0.3 -0.3,-0.4 -0.1,-0.1 -0.3,-0.2 -0.5,-0.2 -0.2,0 -0.5,-0.1 -0.9,-0.1 h -2 z m 0.2,-5.2 h 1.3 c 0.4,0 0.7,0 0.9,0 0.2,0 0.4,-0.1 0.5,-0.1 0.2,-0.1 0.3,-0.1 0.5,-0.3 0.2,-0.2 0.2,-0.3 0.3,-0.4 0.1,-0.2 0.1,-0.3 0.1,-0.5 0,-0.2 -0.1,-0.4 -0.2,-0.6 -0.1,-0.2 -0.3,-0.3 -0.5,-0.4 -0.2,-0.1 -0.6,-0.1 -1.1,-0.1 h -1.7 z"
   id="path16"
   inkscape:connector-curvature="0" />
		<path
   d="m 139.8,21.4 c 0.1,-0.9 0.1,-1.8 0.1,-2.6 0.9,0 1.7,0 2.5,0 0.8,0 1.6,0 2.5,0 -0.1,0.8 -0.1,1.7 -0.1,2.6 -0.9,0 -1.7,0 -2.5,0 -0.8,-0.1 -1.6,-0.1 -2.5,0 z"
   id="path18"
   inkscape:connector-curvature="0" />
		<path
   d="m 145.7,24.8 c -0.1,-1.3 -0.2,-2.4 -0.3,-3.2 0.7,0.3 1.3,0.5 1.9,0.6 0.5,0.1 1,0.2 1.4,0.2 0.5,0 1,-0.1 1.3,-0.2 0.3,-0.2 0.5,-0.4 0.5,-0.7 0,-0.1 0,-0.2 0,-0.3 0,-0.1 -0.1,-0.2 -0.2,-0.3 -0.1,-0.1 -0.2,-0.3 -0.4,-0.4 L 148.2,19 c -0.4,-0.3 -0.7,-0.6 -0.9,-0.8 -0.3,-0.3 -0.6,-0.6 -0.8,-0.9 -0.2,-0.3 -0.3,-0.5 -0.4,-0.8 -0.1,-0.3 -0.1,-0.6 -0.1,-0.9 0,-0.4 0.1,-0.7 0.2,-1.1 0.1,-0.4 0.3,-0.7 0.6,-1 0.3,-0.3 0.6,-0.6 1.1,-0.8 0.4,-0.2 0.9,-0.4 1.4,-0.5 0.5,-0.1 1,-0.1 1.5,-0.1 1,0 2.2,0.1 3.4,0.4 0,0.4 0,0.8 0.1,1.2 0,0.4 0.1,1 0.2,1.9 -0.6,-0.2 -1.1,-0.4 -1.6,-0.5 C 152.4,15 152,15 151.7,15 c -0.5,0 -0.9,0.1 -1.2,0.3 -0.3,0.2 -0.5,0.4 -0.5,0.7 0,0.1 0,0.2 0.1,0.4 0,0.1 0.1,0.3 0.3,0.4 0.1,0.2 0.3,0.3 0.5,0.5 0.2,0.2 0.6,0.5 1,0.8 l 0.7,0.5 c 0.2,0.2 0.4,0.4 0.6,0.6 0.2,0.2 0.4,0.5 0.6,0.7 0.2,0.2 0.3,0.4 0.4,0.6 0.1,0.2 0.2,0.4 0.2,0.6 0,0.2 0.1,0.4 0.1,0.6 0,0.6 -0.1,1.1 -0.4,1.6 -0.3,0.5 -0.6,0.9 -1.1,1.2 -0.5,0.3 -1,0.6 -1.6,0.7 -0.6,0.1 -1.2,0.2 -1.9,0.2 -1,-0.2 -2.2,-0.3 -3.8,-0.6 z"
   id="path20"
   inkscape:connector-curvature="0" />
		<path
   d="m 156.4,25 c 0.2,-1.6 0.3,-2.9 0.3,-4 0,-1.1 0.1,-2.5 0.2,-4.3 0.1,-1.8 0.1,-3 0.1,-3.5 v -0.8 c 1.5,0 3.2,0 5.3,0 1.9,0 3.6,0 5.1,0 v 0.3 c 0,0.1 0,0.3 0,0.8 l -0.1,1 c 0,0.2 0,0.4 0,0.7 -1.2,0 -2.2,-0.1 -3,-0.1 -0.9,0 -1.5,0 -1.8,0 -0.3,0 -0.8,0 -1.5,0 l -0.1,2.1 c 0.7,0 1.6,0 2.6,0 0.3,0 1.3,0 2.8,-0.1 -0.1,0.8 -0.1,1.7 -0.2,2.8 -1.1,0 -1.9,0 -2.5,0 -0.9,0 -1.8,0 -2.9,0.1 l -0.1,2.3 h 1.1 c 0.3,0 1,0 2,0 h 1.9 c 0.3,0 0.8,0 1.4,-0.1 -0.1,0.9 -0.1,1.9 -0.2,2.8 -1.5,0 -3.2,0 -5,0 h -4.1 z"
   id="path22"
   inkscape:connector-curvature="0" />
		<path
   d="m 184.3,21.8 c -0.1,0.5 -0.2,0.9 -0.3,1.4 l -0.3,1.5 c -1,0.2 -2.2,0.3 -3.5,0.4 -1.3,0.1 -2.6,0.1 -3.6,0.1 -0.9,0 -1.8,-0.1 -2.6,-0.2 -0.8,-0.1 -1.6,-0.4 -2.3,-0.8 -0.7,-0.4 -1.3,-0.9 -1.7,-1.4 -0.5,-0.6 -0.8,-1.2 -1,-1.8 -0.2,-0.6 -0.3,-1.3 -0.3,-2.1 0,-1 0.2,-1.9 0.5,-2.7 0.4,-0.8 0.9,-1.5 1.6,-2.1 0.7,-0.6 1.5,-1.1 2.5,-1.4 1,-0.3 2.1,-0.5 3.4,-0.5 1,0 1.9,0.1 2.8,0.4 0.9,0.3 1.7,0.7 2.4,1.3 0.7,0.6 1.2,1.2 1.5,2 0.4,0.8 0.5,1.5 0.5,2.3 0,0.4 0,0.9 -0.1,1.3 -0.1,0.4 -0.2,0.8 -0.4,1.2 -0.2,0.4 -0.4,0.7 -0.6,0.9 -0.2,0.3 -0.5,0.6 -0.8,0.9 0.6,-0.1 1,-0.1 1.3,-0.2 0.1,-0.3 0.5,-0.4 1,-0.5 z m -7.9,-6.9 c -0.7,0 -1.4,0.2 -2,0.5 -0.6,0.3 -1.1,0.8 -1.4,1.5 -0.3,0.6 -0.5,1.3 -0.5,1.9 0,0.7 0.2,1.3 0.5,1.9 0.3,0.5 0.7,0.9 1.3,1.2 0.6,0.3 1.2,0.4 1.8,0.4 0.7,0 1.3,-0.2 1.9,-0.5 0.6,-0.3 1,-0.8 1.3,-1.4 0.3,-0.6 0.5,-1.3 0.5,-2 0,-0.7 -0.1,-1.3 -0.4,-1.8 -0.3,-0.6 -0.7,-1 -1.2,-1.3 -0.5,-0.2 -1.1,-0.4 -1.8,-0.4 z"
   id="path24"
   inkscape:connector-curvature="0" />
	</g>
	
</g>
</svg>
